<svg xmlns="http://www.w3.org/2000/svg" fill="white" viewBox="0 0 48 48" width="96px" height="96px"><path d="M 11.5 6 C 8.4818182 6 6 8.4818182 6 11.5 L 6 28.558594 A 1.50015 1.50015 0 1 0 9 28.558594 L 9 11.5 C 9 10.118182 10.118182 9 11.5 9 L 36.5 9 C 37.881818 9 39 10.118182 39 11.5 L 39 12.744141 A 1.50015 1.50015 0 1 0 42 12.744141 L 42 11.5 C 42 8.4818182 39.518182 6 36.5 6 L 11.5 6 z M 40.476562 17.095703 A 1.50015 1.50015 0 0 0 39 18.617188 L 39 36.5 C 39 37.881818 37.881818 39 36.5 39 L 11.5 39 C 10.118182 39 9 37.881818 9 36.5 L 9 34.744141 A 1.50015 1.50015 0 1 0 6 34.744141 L 6 36.5 C 6 39.518182 8.4818182 42 11.5 42 L 36.5 42 C 39.518182 42 42 39.518182 42 36.5 L 42 18.617188 A 1.50015 1.50015 0 0 0 40.476562 17.095703 z M 22.355469 22.400391 L 22.355469 32.0625 C 22.355469 33.5455 21.793359 33.925781 20.818359 33.925781 C 19.799359 33.925781 19.089047 33.291844 18.623047 32.464844 L 16.207031 33.925781 C 16.906031 35.406781 18.622047 37 20.998047 37 C 23.628047 37 25.429688 35.601297 25.429688 32.529297 L 25.429688 22.400391 L 22.355469 22.400391 z M 31.925781 22.400391 C 29.306781 22.400391 27.630859 24.074437 27.630859 26.273438 C 27.630859 28.660438 29.037344 29.790406 31.152344 30.691406 L 31.886719 31.005859 C 33.223719 31.589859 33.882812 31.946172 33.882812 32.951172 C 33.882813 33.790172 33.244297 34.398438 32.029297 34.398438 C 30.583297 34.398437 29.900484 33.414672 29.271484 32.388672 L 26.966797 33.925781 C 27.827797 35.626781 29.374656 37 32.097656 37 C 34.882656 37 36.955078 35.554063 36.955078 32.914062 C 36.955078 30.465063 35.550594 29.375594 33.058594 28.308594 L 32.324219 27.994141 C 31.066219 27.450141 30.521484 27.094844 30.521484 26.214844 C 30.521484 25.503844 31.066781 24.958984 31.925781 24.958984 C 32.767781 24.958984 33.3095 25.313844 33.8125 26.214844 L 36.095703 24.748047 C 35.129703 23.049047 33.789781 22.400391 31.925781 22.400391 z"/></svg>