<svg xmlns="http://www.w3.org/2000/svg" fill="white" viewBox="0 0 48 48" width="100px" height="100px"><path d="M 23.962891 3.0058594 A 1.50015 1.50015 0 0 0 23.314453 3.171875 L 6 12.070312 A 1.50015 1.50015 0 0 0 5 13.71875 L 5 35.5 A 1.50015 1.50015 0 0 0 5.8144531 36.833984 L 23.314453 45.824219 A 1.50015 1.50015 0 0 0 24.685547 45.824219 L 42.185547 36.833984 A 1.50015 1.50015 0 0 0 43 35.5 L 43 13.763672 A 1.50015 1.50015 0 0 0 41.955078 12.046875 L 41.953125 12.046875 L 24.685547 3.171875 A 1.50015 1.50015 0 0 0 23.962891 3.0058594 z M 40 20.314453 L 40 34.583984 L 24 42.802734 L 8 34.583984 L 8 21.597656 L 10.009766 22.535156 L 10.007812 23.486328 C 10.007812 23.674328 10.112297 23.845641 10.279297 23.931641 L 12.255859 24.947266 C 12.410859 25.027266 12.595141 25.020688 12.744141 24.929688 C 12.892141 24.838687 12.984375 24.676953 12.984375 24.501953 L 12.984375 21.804688 L 14.988281 22.798828 L 14.988281 24.103516 C 14.988281 24.291516 15.093766 24.462828 15.259766 24.548828 L 17 25.441406 L 17.013672 27.044922 C 17.014672 27.234922 17.123922 27.407234 17.294922 27.490234 L 20.279297 28.9375 C 20.348297 28.9715 20.424047 28.988281 20.498047 28.988281 C 20.590047 28.988281 20.682672 28.963109 20.763672 28.912109 C 20.909672 28.821109 20.997047 28.662234 20.998047 28.490234 L 21.009766 26.142578 L 24 27.722656 L 24 30.009766 C 24 30.183766 24.089281 30.344547 24.238281 30.435547 C 24.318281 30.484547 24.409 30.509766 24.5 30.509766 C 24.578 30.509766 24.654562 30.491078 24.726562 30.455078 L 27.714844 28.933594 C 27.881844 28.848594 27.985328 28.677234 27.986328 28.490234 L 28.001953 26.238281 L 29.990234 25.273438 L 30.003906 28.490234 C 30.003906 28.664234 30.094187 28.824062 30.242188 28.914062 C 30.390187 29.005063 30.575469 29.011594 30.730469 28.933594 L 32.738281 27.902344 C 32.905281 27.817344 33.009766 27.645031 33.009766 27.457031 L 33.009766 22.1875 L 35.013672 21.191406 L 35.013672 24.501953 C 35.013672 24.675953 35.105906 24.836734 35.253906 24.927734 C 35.403906 25.018734 35.587188 25.025312 35.742188 24.945312 L 37.71875 23.931641 C 37.88575 23.845641 37.990234 23.673328 37.990234 23.486328 L 37.988281 21.253906 L 40 20.314453 z M 37.542969 26.005859 C 37.460719 26.000109 37.377781 26.015281 37.300781 26.050781 L 35.277344 26.978516 C 35.098344 27.060516 34.983375 27.2405 34.984375 27.4375 L 35 29.486328 C 35.001 29.660328 35.091234 29.820156 35.240234 29.910156 C 35.320234 29.958156 35.41 29.982422 35.5 29.982422 C 35.578 29.982422 35.656516 29.963734 35.728516 29.927734 L 37.736328 28.896484 C 37.903328 28.811484 38.007813 28.639172 38.007812 28.451172 L 38.007812 26.505859 C 38.007812 26.335859 37.920344 26.175984 37.777344 26.083984 C 37.705344 26.038484 37.625219 26.011609 37.542969 26.005859 z M 13.458984 28.021484 C 13.376609 28.027234 13.296609 28.053609 13.224609 28.099609 C 13.081609 28.191609 12.994141 28.350484 12.994141 28.521484 L 12.994141 30.46875 C 12.994141 30.65675 13.099625 30.826109 13.265625 30.912109 L 15.273438 31.943359 C 15.345437 31.980359 15.422953 31.998047 15.501953 31.998047 C 15.591953 31.998047 15.682719 31.975734 15.761719 31.927734 C 15.910719 31.837734 16.000953 31.677906 16.001953 31.503906 L 16.017578 29.453125 C 16.019578 29.256125 15.905562 29.076141 15.726562 28.994141 L 13.703125 28.066406 C 13.625625 28.031406 13.541359 28.015734 13.458984 28.021484 z M 32.544922 30.019531 C 32.462547 30.013781 32.379734 30.028953 32.302734 30.064453 L 30.279297 30.992188 C 30.100297 31.074188 29.985328 31.255172 29.986328 31.451172 L 30.001953 33.501953 C 30.002953 33.674953 30.093188 33.835781 30.242188 33.925781 C 30.321188 33.973781 30.411953 33.996094 30.501953 33.996094 C 30.579953 33.996094 30.658469 33.977406 30.730469 33.941406 L 32.738281 32.910156 C 32.905281 32.824156 33.009766 32.654797 33.009766 32.466797 L 33.009766 30.519531 C 33.009766 30.349531 32.922297 30.191609 32.779297 30.099609 C 32.707797 30.053109 32.627297 30.025281 32.544922 30.019531 z"/></svg>